<?xml version="1.0" standalone="no"?>
<!DOCTYPE svg PUBLIC "-//W3C//DTD SVG 1.1//EN" "http://www.w3.org/Graphics/SVG/1.1/DTD/svg11.dtd" >
<svg xmlns="http://www.w3.org/2000/svg">
<metadata>Generated by IcoMoon</metadata>
<defs>
<font id="icomoon" horiz-adv-x="1024">
<font-face units-per-em="1024" ascent="960" descent="-64" />
<missing-glyph horiz-adv-x="1024" />
<glyph unicode="&#x20;" horiz-adv-x="512" d="" />
<glyph unicode="&#xe900;" glyph-name="youtube" d="M406.282 382.626l-0.047 280.243 276.689-140.61-276.642-139.633zM1013.775 711.419c0 0-10.005 68.732-40.709 98.999-38.939 39.725-82.586 39.922-102.601 42.247-143.294 10.090-358.242 10.090-358.242 10.090h-0.445c0 0-214.943 0-358.242-10.090-20.017-2.325-63.648-2.522-102.601-42.247-30.702-30.267-40.693-98.999-40.693-98.999s-10.241-80.714-10.241-161.427v-75.669c0-80.712 10.241-161.425 10.241-161.425s9.991-68.733 40.693-99c38.953-39.726 90.12-38.47 112.91-42.633 81.921-7.652 348.156-10.019 348.156-10.019s215.17 0.315 358.464 10.404c20.016 2.326 63.663 2.522 102.601 42.248 30.704 30.267 40.709 99 40.709 99s10.225 80.713 10.225 161.425v75.669c0 80.713-10.225 161.427-10.225 161.427v0z" />
<glyph unicode="&#xe901;" glyph-name="user" d="M772.248 690.761c0 160.555-115.301 292.328-259.847 292.328s-259.847-131.773-259.847-292.328c0-160.555 115.301-292.328 259.847-292.328s259.847 131.773 259.847 292.328zM317.515 690.761c0 126.463 88.289 227.367 194.886 227.367s194.886-100.903 194.886-227.367c0-126.463-88.289-227.367-194.886-227.367s-194.886 100.903-194.886 227.367zM512.401 463.394c-235.327 0-439.478-157.759-501.077-381.376l-11.324-41.107h42.638c7.278 0 7.278 0 40.040 0.003 43.691 0.006 43.691 0.006 105.62 0.020 109.303 0.029 218.728 0.080 321.027 0.161 352.465 0.278 478.524 1.869 478.524 1.869h36.15l-10.957 40.63c-62.143 222.834-265.91 379.801-500.641 379.801zM981.755 74.868l-6.094 31.904c0.099 0.019-234.317-0.532-466.387-0.715-102.288-0.081-211.701-0.133-320.994-0.161-61.923-0.014-61.923-0.014-105.61-0.020-32.757-0.003-32.757-0.003-40.032-0.003l31.315-41.108c53.884 195.608 232.539 333.666 438.448 333.666 205.387 0 383.706-137.364 438.066-332.29l31.287 8.725z" />
<glyph unicode="&#xe902;" glyph-name="cart" d="M145.948 975.203h-145.949v46.341h181.658l4.267-17.757 138.819-584.513h562.785l79.242 370.828h-756.23v46.341h813.46l-100.118-463.51h-634.025l-143.906 602.27zM277.621 141.479c0 76.78 62.243 139.023 139.023 139.023s139.023-62.243 139.023-139.023c0-76.78-62.243-139.023-139.023-139.023s-139.023 62.243-139.023 139.023zM509.326 141.479c0 51.187-41.495 92.682-92.682 92.682s-92.682-41.495-92.682-92.682c0-51.187 41.495-92.682 92.682-92.682s92.682 41.495 92.682 92.682zM694.69 141.479c0 76.78 62.243 139.023 139.023 139.023s139.023-62.243 139.023-139.023c0-76.78-62.243-139.023-139.023-139.023s-139.023 62.243-139.023 139.023zM926.396 141.479c0 51.187-41.495 92.682-92.682 92.682s-92.682-41.495-92.682-92.682c0-51.187 41.495-92.682 92.682-92.682s92.682 41.495 92.682 92.682z" />
<glyph unicode="&#xe903;" glyph-name="close" d="M512 640l-383.999 383.999-128.001-127.999 384.001-383.999-384.001-383.999 128.001-128.001 383.999 383.999 384.001-383.999 127.999 128.001-383.999 383.999 383.999 383.999-127.999 127.999-384.001-383.999z" />
<glyph unicode="&#xe904;" glyph-name="facebook-icon" d="M1024 128v768c0 70.4-57.6 128-128 128h-768c-70.4 0-128-57.6-128-128v-768c0-70.4 57.6-128 128-128h768c70.4 0 128 57.6 128 128zM536.832 0v432.448h-114.368v155.712h114.368v132.928c0 104.512 67.52 200.512 223.168 200.512 63.040 0 109.632-6.016 109.632-6.016l-3.712-145.408c0 0-47.488 0.448-99.392 0.448-56.064 0-65.088-25.856-65.088-68.8 0-33.92 0 72.384 0-113.664h168.96l-7.36-155.712h-161.6v-432.448h-164.608z" />
<glyph unicode="&#xe905;" glyph-name="instagram-icon" d="M512.001 1023.999c-139.052 0-156.488-0.589-211.098-3.081-54.496-2.485-91.715-11.142-124.282-23.799-33.668-13.083-62.222-30.59-90.687-59.053-28.463-28.466-45.971-57.018-59.053-90.687-12.658-32.567-21.314-69.786-23.799-124.282-2.492-54.611-3.081-72.046-3.081-211.098 0-139.049 0.589-156.486 3.081-211.096 2.485-54.496 11.142-91.715 23.799-124.282 13.082-33.668 30.59-62.222 59.053-90.687 28.466-28.463 57.018-45.97 90.687-59.055 32.567-12.656 69.786-21.312 124.282-23.797 54.611-2.492 72.046-3.081 211.098-3.081 139.049 0 156.486 0.589 211.096 3.081 54.496 2.485 91.715 11.142 124.282 23.797 33.668 13.084 62.222 30.592 90.687 59.055 28.463 28.466 45.971 57.018 59.055 90.687 12.656 32.567 21.312 69.786 23.797 124.282 2.492 54.611 3.081 72.046 3.081 211.096 0 139.052-0.589 156.488-3.081 211.098-2.485 54.496-11.142 91.715-23.797 124.282-13.084 33.668-30.592 62.222-59.055 90.687-28.466 28.463-57.018 45.97-90.687 59.053-32.567 12.658-69.786 21.314-124.282 23.799-54.611 2.492-72.046 3.081-211.096 3.081v0zM512.001 931.747c136.709 0 152.902-0.522 206.891-2.985 49.919-2.276 77.029-10.618 95.071-17.628 23.899-9.288 40.954-20.383 58.87-38.301 17.917-17.915 29.013-34.971 38.3-58.87 7.012-18.041 15.353-45.151 17.628-95.071 2.463-53.988 2.985-70.182 2.985-206.893 0-136.709-0.522-152.903-2.985-206.891-2.276-49.919-10.618-77.029-17.628-95.071-9.288-23.899-20.383-40.954-38.3-58.87-17.915-17.917-34.971-29.013-58.87-38.301-18.041-7.012-45.151-15.353-95.071-17.628-53.981-2.463-70.173-2.985-206.891-2.985-136.721 0-152.91 0.522-206.893 2.985-49.919 2.276-77.029 10.618-95.071 17.628-23.899 9.288-40.954 20.383-58.87 38.301-17.915 17.915-29.013 34.971-38.3 58.87-7.012 18.041-15.353 45.151-17.628 95.071-2.463 53.988-2.985 70.182-2.985 206.891 0 136.711 0.522 152.904 2.985 206.893 2.276 49.919 10.618 77.029 17.628 95.071 9.288 23.899 20.383 40.954 38.3 58.87 17.915 17.917 34.971 29.013 58.87 38.301 18.041 7.012 45.151 15.353 95.071 17.628 53.988 2.463 70.182 2.985 206.893 2.985zM512.001 341.332c-94.259 0-170.668 76.41-170.668 170.666 0 94.259 76.41 170.668 170.668 170.668 94.256 0 170.666-76.41 170.666-170.668 0-94.256-76.41-170.666-170.666-170.666zM512.001 774.918c-145.208 0-262.92-117.711-262.92-262.92 0-145.206 117.711-262.918 262.92-262.918 145.206 0 262.918 117.711 262.918 262.918s-117.711 262.92-262.918 262.92zM846.747 785.306c0-33.933-27.508-61.439-61.441-61.439-33.931 0-61.439 27.507-61.439 61.439s27.508 61.441 61.439 61.441c33.933 0 61.441-27.508 61.441-61.441z" />
<glyph unicode="&#xe906;" glyph-name="left-carrot" d="M367.946 511.589l379.213-456-46.162-55.589-424.838 511.589 425.521 512.411 46.162-55.589z" />
<glyph unicode="&#xe907;" glyph-name="linkedin-icon" d="M870.4 169.152h-155.84v246.208c0 62.4-18.944 104.96-75.008 104.96-42.752 0-64.832-28.736-76.032-56.448-4.096-9.856-4.8-23.744-4.8-37.632v-257.088h-155.456c0 0 2.048 435.776 0 466.88h155.456v-70.592c31.168 31.552 54.272 76.608 136.512 76.608 101.888 0 175.168-66.304 175.168-208.832v-264.064zM240.192 698.305h-1.024c-51.968 0-85.568 33.728-85.568 78.272 0 45.504 34.624 78.272 87.616 78.272 52.928 0 85.568-32.768 86.528-78.272 0-44.544-33.6-78.272-87.552-78.272v0zM169.152 169.152v466.88h155.84v-466.88h-155.84zM896 1024h-768c-70.4 0-128-57.6-128-128v-768c0-70.4 57.6-128 128-128h768c70.4 0 128 57.6 128 128v768c0 70.4-57.6 128-128 128v0z" />
<glyph unicode="&#xe908;" glyph-name="right-carrot" d="M656.054 511.589l-379.213-456 46.162-55.589 424.838 511.589-425.521 512.411-46.162-55.589z" />
<glyph unicode="&#xe909;" glyph-name="search" d="M683.118 299.182l299.182-299.182 41.7 41.7-299.182 299.182c62.797 72.422 100.8 166.927 100.8 270.309 0 227.988-184.821 412.809-412.809 412.809s-412.809-184.821-412.809-412.809c0-227.988 184.821-412.809 412.809-412.809 103.381 0 197.887 38.003 270.309 100.8zM55.041 611.192c0 197.59 160.178 357.768 357.768 357.768s357.768-160.178 357.768-357.768c0-197.59-160.178-357.768-357.768-357.768s-357.768 160.178-357.768 357.768z" />
<glyph unicode="&#xe90a;" glyph-name="twitter-bird-icon" d="M1024 829.381c-37.753-16.701-78.129-27.899-120.745-33.018 43.448 25.851 76.721 67.059 92.399 116.202-40.44-24.124-85.488-41.784-133.352-50.998-38.265 40.889-92.782 66.227-153.187 66.227-116.010 0-209.881-93.871-209.881-210.009 0-16.317 1.791-32.442 5.439-47.735-174.432 8.703-329.283 92.271-432.687 219.351-18.108-30.97-28.474-66.995-28.474-105.58 0-72.883 16.189-136.998 72.626-174.879-34.426 1.151-115.819 10.686-115.819 26.363v-2.687c0-101.741 93.039-186.526 189.149-205.657-17.661-4.799-25.787-7.295-44.92-7.295-13.63 0-21.5 1.151-34.362 3.648 26.683-83.441 106.796-144.101 198.619-145.765-71.794-56.501-160.994-89.904-259.407-89.904-16.893 0-32.954 0.96-49.398 2.944 92.91-59.637 203.674-94.382 322.18-94.382 386.103 0 597.52 319.876 597.52 597.201 0 9.214-0.256 18.237-0.576 27.259 41.016 29.563 76.594 66.74 104.876 108.716z" />
<glyph unicode="&#xe90b;" glyph-name="arrow" d="M106.849 540.17l298.186 297.764-39.697 39.697-365.338-365.337 365.924-365.924 39.697 39.698-298.385 297.963h916.764v56.14h-917.153z" />
<glyph unicode="&#xe90c;" glyph-name="plus" d="M585.143 585.143v438.857h-146.286v-438.857h-438.857v-146.286h438.857v-438.857h146.286v438.857h438.857v146.286h-438.857z" />
<glyph unicode="&#xe90d;" glyph-name="up-carrot" d="M511.589 656.054l-456-379.213-55.589 46.162 511.589 424.838 512.411-425.521-55.589-46.162z" />
<glyph unicode="&#xe90e;" glyph-name="down-carrot" d="M512.411 367.946l456 379.213 55.589-46.162-511.589-424.838-512.411 425.521 55.589 46.162z" />
<glyph unicode="&#xe90f;" glyph-name="gluten-free" d="M864.243 178.561l-169.505 169.505c-0.811-9.947-2.513-20.759-5.546-32.063l156.246-156.246c-87.040-82.439-204.388-133.16-333.438-133.16-267.65 0-485.403 217.753-485.403 485.403 0 129.051 50.721 246.412 133.147 333.452l169.705-169.705c0.785 7.966 1.849 13.525 2.274 15.52 1.104 5.12 3.085 9.854 5.559 14.256l-158.733 158.733c87.040 82.425 204.401 133.147 333.452 133.147 267.65 0 485.403-217.753 485.403-485.403 0-129.051-50.735-246.398-133.16-333.438zM512 1024c-282.318 0-512-229.682-512-512s229.682-512 512-512c282.318 0 512 229.682 512 512s-229.682 512-512 512zM488.45 669.706c6.21 2.899 8.91 10.28 6.011 16.49-6.21 13.392-9.376 28.127-9.376 43.793 0 38.513 16.397 67.132 26.903 81.521 10.493-14.389 26.89-43.021 26.89-81.521 0-15.666-3.152-30.401-9.376-43.793-2.899-6.21-0.199-13.591 6.024-16.49 6.21-2.886 13.578-0.186 16.477 6.024 7.766 16.703 11.69 34.949 11.69 54.259 0 67.252-41.279 108.039-43.035 109.741-2.38 2.327-5.519 3.458-8.671 3.458-3.138 0-6.277-1.13-8.671-3.458-1.769-1.702-43.048-42.489-43.048-109.741 0-19.31 3.923-37.556 11.69-54.245 2.886-6.224 10.267-8.91 16.49-6.038zM543.516 407.137c-6.729-1.277-11.144-7.78-9.854-14.509 1.13-5.958 6.343-10.094 12.168-10.094 0.771 0 1.556 0.066 2.354 0.213 28.26 5.413 53.354 18.764 72.544 38.593 46.639 48.181 33.127 113.93 32.515 116.723-1.25 5.705-6.29 9.788-12.128 9.788h-0.013c-2.447 0-60.469-0.598-107.241-48.926-3.857-3.99-7.394-8.046-10.586-12.195v81.388c0 0.040 0.013 0.080 0.013 0.133 1.769 14.216 6.649 35.72 28.419 58.222 28.127 29.071 61.693 37.715 78.582 40.282 1.263-18.1-0.146-55.19-27.382-83.343-15.852-16.371-35.827-26.97-59.392-31.478-6.729-1.29-11.144-7.78-9.854-14.522 1.144-5.945 6.343-10.067 12.168-10.067 0.771 0 1.556 0.066 2.354 0.213 28.273 5.413 53.354 18.764 72.544 38.593 46.639 48.194 33.127 113.943 32.529 116.723-1.237 5.705-6.29 9.788-12.128 9.788h-0.013c-2.447 0-60.469-0.598-107.241-48.913-9.096-9.402-16.318-19.163-21.89-29.576-5.559 10.4-12.793 20.174-21.876 29.576-46.772 48.314-104.794 48.913-107.241 48.913h-0.013c-5.851 0-10.892-4.083-12.128-9.788-0.598-2.779-14.11-68.528 32.515-116.723 19.19-19.828 44.271-33.167 72.544-38.593 0.798-0.146 1.583-0.213 2.354-0.213 5.825 0 11.038 4.123 12.168 10.067 1.29 6.742-3.125 13.232-9.854 14.522-23.552 4.508-43.527 15.107-59.379 31.478-27.249 28.153-28.645 65.243-27.395 83.343 16.889-2.567 50.455-11.211 78.595-40.282 21.77-22.488 26.637-43.992 28.406-58.222 0-0.040 0.027-0.080 0.027-0.133v-81.388c-3.218 4.149-6.729 8.205-10.612 12.195-46.758 48.327-104.78 48.926-107.227 48.926v0c-5.851 0-10.905-4.083-12.142-9.801-0.598-2.779-14.11-68.528 32.502-116.709 19.19-19.828 44.285-33.167 72.558-38.593 0.785-0.16 1.569-0.213 2.341-0.213 5.838 0 11.038 4.136 12.182 10.080 1.29 6.729-3.138 13.219-9.854 14.522-23.565 4.522-43.54 15.081-59.379 31.478-27.249 28.14-28.645 65.23-27.409 83.33 16.903-2.567 50.455-11.211 78.595-40.282 21.77-22.488 26.651-44.005 28.419-58.208 0-0.066 0.013-0.106 0.027-0.146v-84.793c-3.218 4.149-6.756 8.205-10.612 12.195-46.772 48.314-104.794 48.913-107.241 48.913-5.851 0-10.905-4.083-12.128-9.788-0.598-2.779-14.11-68.528 32.502-116.723 19.19-19.828 44.285-33.18 72.558-38.593 0.785-0.16 1.569-0.213 2.341-0.213 5.838 0 11.025 4.136 12.168 10.067 1.29 6.742-3.125 13.232-9.854 14.535-23.565 4.508-43.54 15.094-59.379 31.465-27.249 28.153-28.659 65.243-27.409 83.343 16.903-2.567 50.455-11.211 78.595-40.282 21.77-22.475 26.651-43.992 28.419-58.222 0.013-0.053 0.013-0.080 0.027-0.133v-81.907c0-6.476 4.947-11.769 11.277-12.354 6.317 0.572 11.277 5.878 11.277 12.354v81.933c0 0.053 0.013 0.080 0.027 0.133 1.769 14.23 6.649 35.747 28.406 58.222 28.14 29.084 61.706 37.715 78.595 40.282 1.263-18.1-0.146-55.19-27.395-83.343-15.839-16.371-35.827-26.956-59.379-31.465-6.729-1.29-11.144-7.78-9.854-14.535 1.13-5.931 6.33-10.067 12.168-10.067 0.771 0 1.556 0.066 2.354 0.213 28.26 5.413 53.354 18.764 72.544 38.593 46.639 48.181 33.114 113.943 32.515 116.723-1.237 5.705-6.277 9.788-12.128 9.788h-0.013c-2.447 0-60.469-0.598-107.227-48.913-3.883-3.99-7.394-8.046-10.612-12.195v84.779c0.013 0.053 0.013 0.093 0.027 0.133 1.769 14.243 6.649 35.747 28.406 58.235 28.14 29.071 61.706 37.715 78.595 40.282 1.263-18.1-0.146-55.203-27.395-83.343-15.825-16.384-35.8-26.97-59.365-31.491z" />
<glyph unicode="&#xe910;" glyph-name="non-gmo" d="M848.322 163.832c-92.734-89.833-214.683-138.557-344.035-136.107-129.101 2.052-249.673 54.273-339.506 147.020-89.846 92.747-138.173 214.921-136.12 344.022 4.212 263.924 220.219 475.692 483.214 475.692 2.596 0 5.231-0.013 7.841-0.066 129.101-2.052 249.686-54.273 339.506-147.020 89.833-92.747 138.173-214.921 136.12-344.022-2.066-129.114-54.273-249.686-147.020-339.52zM878.253 865.809c-94.759 97.833-221.941 152.901-358.113 155.072-136.067 1.947-265.049-48.804-362.881-143.563s-152.914-221.941-155.086-358.113c-2.172-136.187 48.817-265.062 143.576-362.895s221.941-152.901 358.113-155.072c2.768-0.053 5.496-0.066 8.251-0.066 277.392 0 505.279 223.397 509.715 501.756 2.172 136.173-48.817 265.049-143.576 362.881zM368.806 655.316c0-5.933 0.225-14.197 0.662-24.792 0.437-10.582 0.728-16.727 0.874-18.409h-0.662l-78.815 127.406h-31.878v-160.714h23.852v83.542c0 11.283-0.517 23.747-1.537 37.387l-0.557 7.138h0.874l79.053-128.067h32.209v160.714h-24.077v-84.204zM467.36 704.237c8.026 10.185 19.918 15.284 35.679 15.284 15.614 0 27.349-5.099 35.229-15.284s11.827-25.137 11.827-44.857c0-19.998-3.986-35.070-11.933-45.175-7.946-10.118-19.733-15.177-35.348-15.177-15.681 0-27.521 5.112-35.507 15.336s-11.985 25.229-11.985 45.016c0 19.72 4.026 34.672 12.039 44.857zM502.813 576.606c23.972 0 42.5 7.258 55.571 21.76 13.085 14.515 19.628 34.858 19.628 61.014 0 26.236-6.529 46.579-19.574 61.014-13.032 14.449-31.507 21.653-55.399 21.653-24.262 0-42.936-7.099-56.008-21.323-13.085-14.224-19.628-34.593-19.628-61.121 0-26.541 6.503-46.989 19.508-61.399 13.005-14.396 31.653-21.601 55.902-21.601zM636.387 662.352c0 11.283-0.517 23.747-1.537 37.374l-0.557 7.151h0.887l79.040-128.081h32.209v160.727h-24.077v-84.204c0-5.933 0.225-14.211 0.662-24.792 0.437-10.595 0.728-16.727 0.874-18.409h-0.649l-78.827 127.406h-31.878v-160.727h23.852v83.556zM324.723 378.567h33.308v-41.44c-9.668-2.132-18.753-3.192-27.256-3.192-16.859 0-29.786 5.112-38.751 15.336-8.98 10.225-13.469 25.164-13.469 44.79 0 18.701 4.979 33.428 14.952 44.195 9.96 10.78 23.521 16.171 40.672 16.171 13.045 0 26.090-3.019 39.136-9.019l9.231 21.878c-15.019 6.449-30.924 9.668-47.704 9.668-26.104 0-46.579-7.311-61.451-21.932-14.886-14.621-22.329-34.858-22.329-60.736 0-26.236 6.609-46.552 19.8-60.961 13.191-14.396 31.944-21.601 56.286-21.601 10.33 0 19.945 0.662 28.858 1.987 8.9 1.312 18.184 3.549 27.865 6.701v80.695h-59.147v-22.541zM504.796 346.796h-0.662l-44.632 127.856h-37.043v-160.727h23.852v78.165c0 17.442-0.622 36.129-1.867 56.061h0.874l46.618-134.226h23.19l48.26 134.015h0.887c-0.292-2.715-0.649-10.49-1.047-23.309-0.41-12.82-0.609-23.23-0.609-31.216v-79.49h25.282v160.727h-37.149l-45.956-127.856zM733.071 349.325c-7.946-10.118-19.733-15.177-35.335-15.177-15.694 0-27.534 5.112-35.52 15.349-7.986 10.211-11.972 25.217-11.972 45.016 0 19.706 4.013 34.659 12.025 44.843 8.039 10.185 19.918 15.284 35.679 15.284 15.614 0 27.362-5.099 35.242-15.284s11.813-25.137 11.813-44.843c0-20.011-3.974-35.070-11.933-45.188zM697.948 477.18c-24.25 0-42.936-7.112-56.008-21.336-13.085-14.211-19.628-34.58-19.628-61.121 0-26.527 6.503-46.989 19.508-61.399 13.019-14.396 31.653-21.601 55.915-21.601 23.958 0 42.486 7.258 55.558 21.773 13.098 14.502 19.628 34.845 19.628 61.014 0 26.236-6.516 46.565-19.561 61.014-13.045 14.436-31.52 21.653-55.412 21.653z" />
<glyph unicode="&#xe911;" glyph-name="soy-free" d="M857.991 178.233l-194.353 198.084c-6.145-6.262-12.818-11.975-19.888-17.232l195.252-199.010c-91.27-82.742-209.126-127.473-333.538-125.216-265.921 4.2-478.8 221.173-474.558 483.672 1.982 122.803 50.755 237.675 137.426 325.1l242.888-247.549c5.537 6.796 11.668 13.070 18.209 18.941l-242.122 246.766c89.354 80.982 204.158 125.281 325.648 125.281 2.616 0 5.259-0.026 7.902-0.066 128.811-2.035 249.112-53.457 338.744-144.809s137.862-211.69 135.802-338.849c-1.982-122.803-50.742-237.687-137.413-325.113zM878.591 860.353c-94.547 96.348-221.442 150.601-357.31 152.74-136.119 2.192-264.467-48.083-362.066-141.418-97.613-93.322-152.57-218.59-154.737-352.729-4.479-276.887 220.081-505.756 500.564-510.178 2.788-0.039 5.563-0.053 8.338-0.053 132.789 0 258.125 50.053 353.729 141.469 97.613 93.335 152.557 218.603 154.724 352.729 2.167 134.138-48.707 261.077-143.241 357.438zM696.561 611.647c-2.881-2.844-6.158-5.662-10.611-9.132-18.103-15.171-31.212-35.077-37.911-57.554-0.753-2.531-0.713-5.218 0.105-7.748 12.051-36.695-0.476-80.46-31.926-111.48-23.138-22.855-53.675-35.964-83.791-35.964-10.135 0-19.926 1.487-29.124 4.422-2.551 0.809-5.352 0.848-7.863 0.104-22.754-6.588-43.051-19.671-58.67-37.843-3.264-4.070-6.092-7.265-8.88-10.045-20.165-19.907-46.765-31.333-72.942-31.333-12.487 0-24.155 2.557-34.66 7.592-1.995 0.965-6.621 3.274-12.395 6.196-17.588 8.883-37.806 19.045-55.024 27.133l-1.189 0.561 0.674 1.109c6.065 9.809 12.395 22.932 18.512 35.625 11.906 24.628 25.41 52.558 40.832 67.793 20.085 19.841 46.62 31.216 72.77 31.216 5.008 0 9.911-0.417 14.589-1.226 2.207-0.404 4.546-0.209 6.739 0.547 21.248 7.422 39.946 20.454 54.046 37.713 0.396 0.483 0.793 1.056 1.242 1.774 5.682 9.849 12.738 18.967 20.958 27.055 8.272 8.166 17.509 15.132 27.459 20.715 0.648 0.379 1.215 0.77 1.758 1.2 17.482 13.945 30.696 32.39 38.202 53.34 0.74 2.152 0.938 4.449 0.555 6.627-2.114 11.936-1.612 24.237 1.467 36.564l0.027 0.13c3.092 6.588 5.669 13.475 7.664 20.493 5.431 10.801 12.554 20.545 21.222 29.077 12.237 12.093 28.859 22.593 46.461 33.72 15.989 10.096 34.093 21.51 51.099 35.808l1.269 1.083 0.594-1.552c9.144-23.115 22.213-47.9 39.933-75.777 18.963-29.755 8.998-76.168-23.191-107.945zM697.857 824.249c-1.347 4.461-5.035 7.905-9.619 9s-9.474-0.326-12.751-3.678c-19.015-19.671-41.333-33.773-62.912-47.405-16.425-10.371-33.313-21.054-47.333-33.969l-0.489-0.443-0.277 0.287-30.088-40.243 0.344-0.17-0.291-0.587c-3.568-7.397-6.29-14.871-8.576-23.545-3.832-14.988-4.691-29.716-2.551-43.778l0.027-0.17-0.040-0.3c-5.92-14.871-15.514-27.981-27.802-38.039-11.8-6.757-22.609-14.988-32.23-24.485-9.607-9.47-17.891-20.075-24.617-31.529-10.254-12.275-23.389-21.797-38.043-27.629l-0.172-0.066-0.304-0.026c-5.167 0.704-10.373 1.056-15.579 1.056-33.061 0-66.361-13.958-91.626-38.899-18.659-18.419-33.22-48.552-46.078-75.124-8.113-16.814-18.196-37.66-24.525-42.773-3.594-2.895-5.404-7.488-4.758-11.988 0.648-4.513 3.686-8.44 7.928-10.24 17.866-7.566 51.997-24.785 70.326-34.033l3.145-1.579c4.664-2.348 8.035-4.057 9.713-4.853 14.113-6.784 29.692-10.228 46.276-10.228 33.194 0 66.626 14.232 91.733 39.043 3.436 3.391 6.925 7.305 10.651 11.949 11.087 12.888 25.332 22.606 41.228 28.124l0.344 0.13 0.37-0.104c10.637-2.961 21.791-4.449 33.154-4.449 37.079 0 74.461 15.901 102.568 43.635 37.053 36.564 52.618 88.913 39.695 133.356l-0.105 0.352 0.119 0.352c5.511 16.018 15.223 30.186 28.080 40.987 5.022 3.913 8.998 7.357 12.554 10.879 41.413 40.856 52.737 99.935 26.931 140.492-21.896 34.438-36.418 64.102-44.413 90.686zM671.908 676.329c-1.309-9.405-6.382-19.085-13.954-26.572-9.118-8.987-20.614-14.14-31.555-14.14-4.625 0-11.153 0.992-15.963 5.713-5.696 5.635-6 13.789-5.682 18.145 0.74 10.058 5.933 20.533 14.232 28.724 9.105 8.987 20.601 14.14 31.542 14.14 4.638 0 11.166-0.992 15.936-5.713 4.678-4.605 6.607-11.818 5.444-20.297zM650.528 723.421c-16.557 0-33.55-7.41-46.632-20.311-11.88-11.74-19.332-27.094-20.442-42.121-0.581-7.944 0.198-23.011 11.906-34.556 9.937-9.823 22.358-11.884 31.026-11.884 16.571 0 33.564 7.41 46.632 20.311 10.981 10.827 18.090 24.55 20.033 38.626 2.048 14.949-2.14 28.816-11.496 38.051-9.923 9.823-22.345 11.884-31.026 11.884zM578.776 462.696c-12.791-12.614-29.124-19.854-44.796-19.854-7.202 0-17.417 1.605-25.213 9.288-6.831 6.744-10.135 16.841-9.277 28.437 1.057 14.532 8.167 28.973 19.993 40.661 12.778 12.614 29.098 19.854 44.769 19.854 7.202 0 17.417-1.618 25.226-9.314 6.831-6.757 10.135-16.841 9.263-28.411-1.044-14.545-8.14-28.985-19.966-40.661zM564.254 564.431c-21.896 0-44.32-9.719-61.498-26.689-15.844-15.641-25.385-35.365-26.864-55.519-1.347-18.458 4.4-35.012 16.174-46.609 13.492-13.345 30.247-16.15 41.915-16.15 21.896 0 44.32 9.732 61.511 26.689 15.844 15.641 25.385 35.351 26.864 55.506 1.334 18.458-4.4 35.012-16.161 46.622-13.505 13.345-30.26 16.15-41.942 16.15zM405.568 411.607c-1.387-10.083-6.845-20.441-14.932-28.437-9.739-9.613-22.041-15.119-33.762-15.119-4.955 0-11.933 1.070-17.060 6.118-4.995 4.93-7.057 12.64-5.801 21.706 1.387 10.083 6.845 20.454 14.945 28.451 9.726 9.601 22.028 15.119 33.762 15.119 4.942 0 11.919-1.070 17.046-6.105 4.995-4.93 7.070-12.653 5.801-21.733zM382.721 462.024c-17.746 0-35.942-7.918-49.922-21.733-11.748-11.571-19.359-26.259-21.433-41.365-2.207-15.993 2.26-30.838 12.289-40.738 10.651-10.514 23.958-12.719 33.233-12.719 17.746 0 35.942 7.918 49.922 21.719 11.734 11.571 19.345 26.272 21.433 41.365 2.207 16.006-2.286 30.851-12.302 40.738-10.651 10.527-23.944 12.732-33.22 12.732z" />
<glyph unicode="&#xe912;" glyph-name="vegan" d="M504.352 26.665c-264.179 4.269-475.687 225.466-471.473 493.076 4.175 265.003 218.309 477.663 478.996 477.663 2.586 0 5.186-0.013 7.772-0.066 264.179-4.269 475.687-225.453 471.473-493.076-4.227-267.623-222.261-482.344-486.768-477.596zM520.054 1023.934c-2.731 0.053-5.448 0.066-8.179 0.066-274.957 0-500.841-224.322-505.252-503.835-4.437-282.278 218.65-515.591 497.323-520.099 2.731-0.040 5.448-0.066 8.179-0.066 274.957 0 500.841 224.322 505.252 503.835 4.437 282.278-218.65 515.604-497.323 520.099zM730.251 381.567c-21.57-51.173-67.676-72.505-114.924-53.195 23.749 77.226 54.364 136.431 101.337 196.289l-19.023 18.193c-46.369-41.957-87.171-122.827-116.040-192.060-30.011 29.111-39.253 79.446-21.753 121.351 10.463 26.318 51.804 58.927 103.043 81.242 22.095 10.041 47.485 18.738 72.796 24.988 0.131-16.304 0.42-43.074 1.392-72.278l0.328-16.57c0.84-40.175 1.825-85.71-7.155-107.959v0zM523.009 488.462c-10.082-20.866-14.323-44.418-12.8-68.023-35.879 86.787-90.65 191.98-160.978 256.479l-19.128-18.073c71.654-92.413 117.826-183.562 153.337-303.131-2.389-1.223-4.332-2.021-4.503-2.088-73.649-29.935-148.178 4.748-181.209 84.207-13.929 35.029-12.17 103.983-10.621 164.824l0.591 24.762c1.838 49.059 2.389 93.782 2.639 116.51 40.947-9.934 82.419-24.23 118.219-40.84 64.788-28.792 138.489-79.101 157.197-126.75 4.030-9.801 7.207-20.001 9.452-30.427-18.878-14.15-41.052-34.337-52.198-57.45v0zM763.334 506.681l-0.013 0.213c-1.116 33.646-1.326 64.126-1.431 78.768-0.092 13.113-0.118 16.637-6.249 20.56l-6.131 3.91-5.173-2.5c-31.613-6.676-64.354-17.328-92.002-29.895-16.673-7.261-34.501-16.557-51.213-27.355-2.599 12.381-6.315 24.496-11.054 35.986-22.804 58.129-103.266 110.991-170.785 140.993-41.104 19.084-89.6 35.268-136.507 45.601l-5.973 2.793-6.249-3.923c-6.197-3.91-6.21-5.546-6.446-25.666-0.249-21.943-0.761-67.597-2.652-117.946l-0.591-24.882c-1.694-66.52-3.453-135.301 12.577-175.623 39.017-93.836 127.527-134.49 215.355-98.743 0.381 0.16 4.844 1.995 9.321 4.508 5.973 3.192 8.809 5.612 9.754 6.503l3.676 3.471c9.61-27.568 16.41-50.588 20.007-65.882l1.825-8.019c2.206-8.99 8.336-15.852 16.397-18.366 2.179-0.665 4.411-0.997 6.617-0.997 5.304 0 10.476 1.902 14.402 5.466 3.623 3.271 5.107 7.062 6.275 9.987 0.21 0.492 0.88 2.327 1.956 5.346 4.766 13.392 9.61 26.411 14.52 39.072 1.129-0.798 2.547-1.689 4.345-2.66 3.545-2.021 6.866-3.391 6.866-3.391 60.823-25.254 122.342 2.327 149.727 67.305 11.093 27.555 10.122 73.927 9.163 118.784l-0.315 16.583z" />
<glyph unicode="&#xe913;" glyph-name="vegetarian" d="M846.427 173.198c-92.553-87.363-214.64-134.593-343.281-132.365-128.813 1.996-249.115 52.768-338.735 142.965-89.645 90.197-137.878 209.026-135.816 334.577s54.152 242.809 146.692 330.185c90.65 85.573 209.46 132.43 335.365 132.43 2.629 0 5.272-0.026 7.903-0.065 265.924-4.135 478.806-218.363 474.564-477.542-2.062-125.565-54.152-242.822-146.692-330.185zM518.977 1006.685c-135.579 2.305-264.457-47.462-362.085-139.629-97.6-92.154-152.559-215.839-154.725-348.268-2.167-132.443 48.708-257.762 143.243-352.904 94.548-95.142 221.445-148.697 357.327-150.809 2.788-0.052 5.55-0.065 8.338-0.065 132.791 0 258.115 49.419 353.746 139.681 97.6 92.154 152.559 215.839 154.725 348.281 4.454 273.385-220.097 499.348-500.57 503.714zM664.782 576.521c-40.198-46.367-94.468-66.627-115.929-73.195l-6.303-1.919-2.207-6.053c-18.078-49.626-78.968-213.456-78.968-213.456l-8.642-23.364c-0.726-1.61-2.22-4.945-2.564-5.435 0 0-0.581-0.206-2.194-0.206h-46.382c-1.678 0-2.564 0.18-2.801 0.18h-0.066c-0.225 0.374-0.674 1.327-1.506 3.992l-36.392 102.278c-6.871 19.153-13.571 38.008-20.205 56.71-25.742 72.513-50.055 141.007-80.699 214.628l-0.753 1.532c-0.384 0.631-0.384 1.623-0.384 2.344 0 2.061 0.37 2.949 0.33 3.014 0.212 0.103 1.269 0.553 3.858 0.553h41.109c1.030-0.013 1.347-0.155 1.347-0.090 0.674-0.579 2.022-3.065 2.907-4.714l116.524-335.659 12.447 36.398c44.374 129.648 54.985 160.713 57.548 169.304l0.185-0.065c0.846 2.601 1.731 3.941 2.326 4.611l1.784 2.538c32.216 60.458 138.882 161.64 139.953 162.658l35.229 33.307-47.638-11.566c-2.629-0.631-60.641-15.932-143.837-132.532 0.674 38.472 8.629 100.616 46.475 156.308 47.796 70.35 186.968 49.008 230.404 40.352-9.581-31.942-39.035-117.927-94.957-182.454zM507.294 732.855c-61.552-90.596-51.972-200.164-48.391-213.559l6.065-22.733c-8.484-24.948-26.442-77.51-40.277-117.952l-91.218 263.159-1.731 3.542c-3.515 6.492-10.030 18.572-27.657 18.572h-41.109c-18.883 0-30.617-11.231-30.617-29.328 0-2.228 0-7.998 3.357-14.232 30.234-72.745 54.39-140.724 79.933-212.696 6.647-18.727 13.36-37.622 20.218-56.761l36.234-101.802c1.89-6.002 6.911-21.934 29.495-21.934h46.382c19.504 0 25.2 12.674 29.296 21.844l8.96 24.15c0 0 56.504 152.046 76.841 207.634 47.625 15.79 91.773 44.383 121.888 79.133 73.776 85.122 102.833 200.808 104.022 205.703l3.026 12.3-12.554 3.169c-8.365 2.1-205.138 50.385-272.161-48.209z" />
<glyph unicode="&#xe914;" glyph-name="dairy-free" d="M857.845 174.050l-162.917 168.202-0.594-37.383 144.549-149.227c-85.997-78.875-200.432-127.041-325.608-127.027-2.59 0-5.22 0.013-7.81 0.066-265.92 4.242-478.8 224.032-474.558 489.939 1.982 124.398 50.742 240.761 137.413 329.322l163.247-168.546 12.923 24.657-157.182 162.282c89.341 82.033 204.158 126.908 325.635 126.908 2.629 0 5.272-0.027 7.902-0.066 128.824-2.062 249.125-54.151 338.757-146.69s137.862-214.438 135.802-343.249c-2.035-128.23-54.283-244.025-137.558-329.189zM878.591 864.883c-94.547 97.613-221.442 152.557-357.322 154.723-135.854 2.207-264.454-48.707-362.066-143.254-97.613-94.534-152.557-221.442-154.723-357.309-4.479-280.482 220.081-512.324 500.55-516.79 2.788-0.053 5.563-0.066 8.352-0.066 132.775 0 258.124 50.702 353.728 143.307 97.613 94.547 152.557 221.442 154.723 357.309 2.167 135.881-48.707 264.467-143.241 362.080zM397.105 494.372c2.048 0 4.030 0.82 5.497 2.299 1.48 1.401 2.312 3.369 2.312 5.511 0 2.048-0.833 4.017-2.312 5.497-2.947 2.881-8.127 2.881-11.008 0-1.467-1.48-2.299-3.449-2.299-5.497 0-2.14 0.833-4.11 2.299-5.511 1.401-1.48 3.369-2.299 5.511-2.299zM471.665 756.795c-4.307 0-7.81-3.489-7.81-7.81v-21.988l-50.637-80.989c-6.184-10.24-11.087-19.584-14.998-28.582-1.718-3.951 0.092-8.536 4.057-10.267 1.005-0.449 2.062-0.648 3.105-0.648 3.013 0 5.88 1.758 7.162 4.691 3.621 8.364 8.219 17.112 13.968 26.639l51.76 82.773c0.78 1.242 1.202 2.669 1.202 4.136v24.235c0 4.321-3.502 7.81-7.81 7.81zM441.371 228.901h-15.592c-19.874 0-20.891 6.963-20.891 27.128v222.724c0 4.307-3.489 7.796-7.796 7.796s-7.81-3.489-7.81-7.796v-222.724c0-17.020 0-42.734 36.497-42.734h15.592c4.307 0 7.81 3.489 7.81 7.796 0 4.321-3.502 7.81-7.81 7.81zM599.943 582.895c-8.377-6.594-14.985-11.8-29.216-11.8s-20.852 5.207-29.23 11.8c-9.157 7.215-20.574 16.2-41.915 16.2s-32.744-8.985-41.902-16.214c-8.377-6.581-14.985-11.787-29.203-11.787s-20.839 5.207-29.203 11.8c-6.779 5.339-14.813 11.629-27.142 14.536 3.7 15.197 10.691 31.001 21.46 48.839l51.76 82.773c1.189 1.89 1.823 4.083 1.823 6.317v33.352h105.541v-33.352c0-2.233 0.634-4.427 1.823-6.317l52.011-83.196c10.968-15.989 17.998-31.74 21.565-48.179-12.923-2.815-21.195-9.29-28.173-14.773v0zM630.93 571.439v-338.678c0-19.002-10.36-41.188-39.55-41.188h-182.883c-29.19 0-39.537 22.187-39.537 41.188v338.664c0 1.863 0.132 3.713 0.225 5.549 6.885-2.008 11.774-5.775 17.403-10.202 9.157-7.228 20.574-16.214 41.915-16.214 21.327 0 32.731 8.985 41.902 16.2 8.364 6.594 14.971 11.8 29.19 11.8 14.232 0 20.839-5.207 29.216-11.787 9.17-7.228 20.587-16.214 41.929-16.214s32.744 8.985 41.915 16.2c5.814 4.572 10.823 8.431 18.063 10.399 0.092-1.903 0.212-3.793 0.212-5.721v0zM426.772 826.272c0 2.18 1.837 4.017 4.004 4.017h138.338c2.18 0 4.004-1.837 4.004-4.017v-33.934c0-1.361-0.753-2.524-1.823-3.25-0.264 0.013-0.502 0.159-0.78 0.159h-142.144c-0.938 0.74-1.599 1.837-1.599 3.092v33.934zM576.541 738.768v26.746c11.761 3.25 20.402 14.047 20.402 26.824v33.934c0 15.355-12.487 27.842-27.842 27.842h-138.325c-15.342 0-27.829-12.487-27.829-27.842v-33.934c0-12.778 8.642-23.561 20.389-26.824v-26.746l-50.042-80.025c-19.491-32.243-28.173-59.173-28.173-87.319v-338.664c0-38.281 26.058-65.027 63.375-65.027h182.883c37.317 0 63.375 26.746 63.375 65.027v338.664c0 31.106-9.342 59.86-28.278 87.477l-49.936 79.866z" />
<glyph unicode="&#xe915;" glyph-name="minus" d="M0 590.769h1024v-157.538h-1024v157.538z" />
<glyph unicode="&#xe916;" glyph-name="arrow-down" d="M483.83 106.849l-297.764 298.186-39.697-39.697 365.337-365.338 365.924 365.924-39.698 39.697-297.963-298.385v916.764h-56.14v-917.153z" />
<glyph unicode="&#xe917;" glyph-name="arrow-right" d="M917.151 483.83l-298.186-297.764 39.697-39.697 365.338 365.337-365.924 365.924-39.697-39.698 298.385-297.963h-916.764v-56.14h917.153z" />
<glyph unicode="&#xe918;" glyph-name="arrow-top" d="M540.17 917.151l297.764-298.186 39.697 39.697-365.337 365.338-365.924-365.924 39.698-39.697 297.963 298.385v-916.764h56.14v917.153z" />
<glyph unicode="&#xf04b;" glyph-name="play" horiz-adv-x="804" d="M790.857 421.143l-758.857-421.714q-13.143-7.429-22.571-1.714t-9.429 20.571v841.143q0 14.857 9.429 20.571t22.571-1.714l758.857-421.714q13.143-7.429 13.143-17.714t-13.143-17.714z" />
</font>
</defs>
</svg>
